<?xml version="1.0" standalone="no"?>
<!DOCTYPE svg PUBLIC "-//W3C//DTD SVG 20010904//EN"
 "http://www.w3.org/TR/2001/REC-SVG-20010904/DTD/svg10.dtd">
<svg version="1.0" xmlns="http://www.w3.org/2000/svg"
 width="450.000000pt" height="450.000000pt" viewBox="0 0 450.000000 450.000000"
 preserveAspectRatio="xMidYMid meet">
<metadata>
Created by potrace 1.14, written by Peter Selinger 2001-2017
</metadata>
<g transform="translate(0.000000,450.000000) scale(0.100000,-0.100000)"
fill="#000000" stroke="none">
<path d="M870 3755 l0 -55 -65 0 -65 0 0 -400 0 -400 -65 0 -65 0 0 -130 0
-130 -70 0 -70 0 0 -160 0 -160 70 0 70 0 0 -70 0 -70 65 0 65 0 0 -75 0 -75
65 0 65 0 0 -55 0 -55 105 0 105 0 0 -65 0 -65 65 0 65 0 0 -262 0 -263 -164
3 -165 3 -3 -63 -3 -63 -130 -3 -130 -3 3 -119 3 -120 60 0 59 0 0 -105 0
-105 235 0 234 0 3 -57 3 -58 58 -3 57 -3 0 -84 0 -85 859 0 860 0 3 38 3 37
63 3 62 3 0 44 0 45 65 0 64 0 3 57 3 58 63 3 62 3 0 159 0 160 -60 0 -60 0 0
125 0 124 62 3 c52 3 62 6 64 23 2 11 1 183 -3 382 l-6 362 -56 3 -56 3 -3 73
-3 72 61 0 60 0 0 70 0 70 65 0 65 0 0 395 0 394 -62 3 -63 3 -3 173 -2 172
-60 0 -60 0 0 -202 c0 -112 -4 -208 -8 -215 -6 -10 -142 -18 -239 -14 -22 1
-23 4 -23 106 l0 105 -65 0 -65 0 0 115 0 115 65 0 65 0 0 110 0 110 70 0 70
0 0 60 0 60 -70 0 -70 0 0 -55 0 -54 -67 -3 -68 -3 -3 -47 -3 -48 -65 0 -64 0
2 -177 3 -178 62 -3 63 -3 2 -171 3 -172 68 3 67 2 0 -285 0 -286 -65 0 -65 0
0 155 0 155 -70 0 -70 0 0 130 0 130 -60 0 -60 0 -2 398 -3 397 -62 3 -63 3 0
54 0 55 -130 0 -130 0 0 -55 0 -55 -70 0 -70 0 0 -50 0 -50 -80 0 -80 0 0 -65
0 -65 -275 0 -275 0 0 65 0 64 -102 3 -103 3 -3 103 -3 102 -169 0 -170 0 0
-55z m220 -274 c0 -96 2 -110 18 -115 14 -5 136 -1 152 5 3 1 8 1 13 0 4 0 7
4 7 10 0 7 -10 9 -24 5 -14 -3 -28 -2 -31 4 -4 6 5 10 19 10 14 0 26 5 26 10
0 6 -6 10 -12 10 -9 0 -8 4 2 10 12 8 12 10 -5 10 -11 0 -27 5 -35 10 -10 7
18 10 88 10 l102 0 0 -44 c0 -23 3 -71 6 -105 l7 -61 73 0 74 0 0 40 0 40 45
0 45 0 0 -105 0 -105 95 0 95 0 0 -110 0 -110 70 0 70 0 0 -90 0 -89 73 -3 72
-3 3 -37 3 -37 -148 -3 -148 -3 -3 -92 -3 -93 151 0 150 0 0 45 0 45 65 0 65
0 0 -104 0 -103 68 -6 c37 -4 95 -7 130 -7 l62 0 0 -70 0 -70 -65 0 -64 0 -3
-72 -3 -73 -62 -3 -63 -3 0 -119 0 -120 260 0 260 0 0 -65 0 -65 60 0 60 0 0
65 0 65 70 0 69 0 3 63 3 62 63 3 62 3 0 -66 0 -65 70 0 70 0 0 -260 0 -259
-67 -3 -68 -3 -3 -192 -2 -193 -135 0 -135 0 0 135 0 136 -62 -3 -63 -3 -3
-62 -3 -63 -257 -2 -257 -3 -3 -68 -3 -67 -207 0 -207 0 0 132 0 133 -92 3
-93 3 0 -136 0 -135 -60 0 -60 0 0 136 0 137 -31 -7 c-17 -3 -62 -3 -100 0
l-69 7 0 383 0 384 -125 0 -125 0 0 55 0 55 -110 0 -110 0 0 75 0 75 -65 0
-65 0 0 75 0 75 -65 0 -65 0 0 100 0 100 98 2 c176 3 157 -3 160 56 l3 52 -65
0 -66 0 0 120 0 119 63 3 62 3 3 68 3 67 49 0 50 0 0 285 0 285 60 0 60 0 0
-109z m1310 -126 l0 -115 -120 0 c-66 0 -123 -1 -127 -2 -5 -2 -9 25 -11 60
l-3 62 66 0 65 0 0 55 0 55 65 0 65 0 0 -115z m-897 -2462 c-13 -2 -35 -2 -50
0 -16 2 -5 4 22 4 28 0 40 -2 28 -4z"/>
<path d="M1082 2543 l3 -98 128 -3 127 -3 0 101 0 100 -130 0 -131 0 3 -97z"/>
</g>
</svg>
